<?xml version="1.0" encoding="utf-8" standalone="no"?>
<!DOCTYPE svg PUBLIC "-//W3C//DTD SVG 1.1//EN"
  "http://www.w3.org/Graphics/SVG/1.1/DTD/svg11.dtd">
<svg xmlns:xlink="http://www.w3.org/1999/xlink" width="822.96pt" height="221.3244pt" viewBox="0 0 822.96 221.3244" xmlns="http://www.w3.org/2000/svg" version="1.1">
 <metadata>
  <rdf:RDF xmlns:dc="http://purl.org/dc/elements/1.1/" xmlns:cc="http://creativecommons.org/ns#" xmlns:rdf="http://www.w3.org/1999/02/22-rdf-syntax-ns#">
   <cc:Work>
    <dc:type rdf:resource="http://purl.org/dc/dcmitype/StillImage"/>
    <dc:date>2026-08-13T10:17:02.372428</dc:date>
    <dc:format>image/svg+xml</dc:format>
    <dc:creator>
     <cc:Agent>
      <dc:title>Matplotlib v3.10.9, https://matplotlib.org/</dc:title>
     </cc:Agent>
    </dc:creator>
   </cc:Work>
  </rdf:RDF>
 </metadata>
 <defs>
  <style type="text/css">*{stroke-linejoin: round; stroke-linecap: butt}</style>
 </defs>
 <g id="figure_1">
  <g id="patch_1">
   <path d="M 0 221.3244
L 822.96 221.3244
L 822.96 0
L 0 0
z
" style="fill: #fcfcfd"/>
  </g>
  <g id="axes_1">
   <g id="patch_2">
    <path d="M 144.968639 174.736229
Q 138.444441 159.725345 132.900692 146.970281
" clip-path="url(#pfd8d1b58bd)" style="fill: none; stroke: #cc79a7; stroke-width: 2.2; stroke-linecap: round"/>
    <path d="M 132.564966 153.222264
L 132.900692 146.970281
L 137.700842 150.990051
z
" clip-path="url(#pfd8d1b58bd)" style="fill: #cc79a7; stroke: #cc79a7; stroke-width: 2.2; stroke-linecap: round"/>
   </g>
   <g id="line2d_1">
    <path d="M 104.625 182.9484
L 104.625 122.1552
" clip-path="url(#pfd8d1b58bd)" style="fill: none; stroke: #17223b; stroke-opacity: 0.65; stroke-width: 6; stroke-linecap: square"/>
   </g>
   <g id="line2d_2">
    <path d="M 104.625 122.1552
L 125.07389 153.483155
L 144.968639 174.736229
" clip-path="url(#pfd8d1b58bd)" style="fill: none; stroke: #009e73; stroke-width: 4.5; stroke-linecap: square"/>
   </g>
   <g id="line2d_3">
    <path d="M 104.625 122.1552
L 114.474562 154.189365
L 144.968639 174.736229
" clip-path="url(#pfd8d1b58bd)" style="fill: none; stroke: #0072b2; stroke-width: 4.5; stroke-linecap: square"/>
   </g>
   <g id="line2d_4">
    <path d="M 144.968639 174.736229
L 210.730604 146.154027
" clip-path="url(#pfd8d1b58bd)" style="fill: none; stroke: #17223b; stroke-width: 3; stroke-linecap: square"/>
   </g>
   <g id="text_1">
    <!-- $\mathbf{F}_t$ -->
    <g style="fill: #cc79a7" transform="translate(133.944441 153.490145) scale(0.09 -0.09)">
     <defs>
      <path id="DejaVuSans-Bold-46" d="M 588 4666
L 3834 4666
L 3834 3756
L 1791 3756
L 1791 2888
L 3713 2888
L 3713 1978
L 1791 1978
L 1791 0
L 588 0
L 588 4666
z
" transform="scale(0.015625)"/>
      <path id="DejaVuSans-Oblique-74" d="M 2706 3500
L 2619 3053
L 1472 3053
L 1100 1153
Q 1081 1047 1072 975
Q 1063 903 1063 863
Q 1063 663 1183 572
Q 1303 481 1569 481
L 2150 481
L 2053 0
L 1503 0
Q 991 0 739 200
Q 488 400 488 806
Q 488 878 497 964
Q 506 1050 525 1153
L 897 3053
L 409 3053
L 500 3500
L 978 3500
L 1172 4494
L 1747 4494
L 1556 3500
L 2706 3500
z
" transform="scale(0.015625)"/>
     </defs>
     <use xlink:href="#DejaVuSans-Bold-46" transform="translate(0 0.09375)"/>
     <use xlink:href="#DejaVuSans-Oblique-74" transform="translate(69.267578 -16.3125) scale(0.7)"/>
    </g>
   </g>
   <g id="text_2">
    <!-- Preparation -->
    <g style="fill: #17223b" transform="translate(74.553047 204.7716) scale(0.09 -0.09)">
     <defs>
      <path id="DejaVuSans-Bold-50" d="M 588 4666
L 2584 4666
Q 3475 4666 3951 4270
Q 4428 3875 4428 3144
Q 4428 2409 3951 2014
Q 3475 1619 2584 1619
L 1791 1619
L 1791 0
L 588 0
L 588 4666
z
M 1791 3794
L 1791 2491
L 2456 2491
Q 2806 2491 2997 2661
Q 3188 2831 3188 3144
Q 3188 3456 2997 3625
Q 2806 3794 2456 3794
L 1791 3794
z
" transform="scale(0.015625)"/>
      <path id="DejaVuSans-Bold-72" d="M 3138 2547
Q 2991 2616 2845 2648
Q 2700 2681 2553 2681
Q 2122 2681 1889 2404
Q 1656 2128 1656 1613
L 1656 0
L 538 0
L 538 3500
L 1656 3500
L 1656 2925
Q 1872 3269 2151 3426
Q 2431 3584 2822 3584
Q 2878 3584 2943 3579
Q 3009 3575 3134 3559
L 3138 2547
z
" transform="scale(0.015625)"/>
      <path id="DejaVuSans-Bold-65" d="M 4031 1759
L 4031 1441
L 1416 1441
Q 1456 1047 1700 850
Q 1944 653 2381 653
Q 2734 653 3104 758
Q 3475 863 3866 1075
L 3866 213
Q 3469 63 3072 -14
Q 2675 -91 2278 -91
Q 1328 -91 801 392
Q 275 875 275 1747
Q 275 2603 792 3093
Q 1309 3584 2216 3584
Q 3041 3584 3536 3087
Q 4031 2591 4031 1759
z
M 2881 2131
Q 2881 2450 2695 2645
Q 2509 2841 2209 2841
Q 1884 2841 1681 2658
Q 1478 2475 1428 2131
L 2881 2131
z
" transform="scale(0.015625)"/>
      <path id="DejaVuSans-Bold-70" d="M 1656 506
L 1656 -1331
L 538 -1331
L 538 3500
L 1656 3500
L 1656 2988
Q 1888 3294 2169 3439
Q 2450 3584 2816 3584
Q 3463 3584 3878 3070
Q 4294 2556 4294 1747
Q 4294 938 3878 423
Q 3463 -91 2816 -91
Q 2450 -91 2169 54
Q 1888 200 1656 506
z
M 2400 2772
Q 2041 2772 1848 2508
Q 1656 2244 1656 1747
Q 1656 1250 1848 986
Q 2041 722 2400 722
Q 2759 722 2948 984
Q 3138 1247 3138 1747
Q 3138 2247 2948 2509
Q 2759 2772 2400 2772
z
" transform="scale(0.015625)"/>
      <path id="DejaVuSans-Bold-61" d="M 2106 1575
Q 1756 1575 1579 1456
Q 1403 1338 1403 1106
Q 1403 894 1545 773
Q 1688 653 1941 653
Q 2256 653 2472 879
Q 2688 1106 2688 1447
L 2688 1575
L 2106 1575
z
M 3816 1997
L 3816 0
L 2688 0
L 2688 519
Q 2463 200 2181 54
Q 1900 -91 1497 -91
Q 953 -91 614 226
Q 275 544 275 1050
Q 275 1666 698 1953
Q 1122 2241 2028 2241
L 2688 2241
L 2688 2328
Q 2688 2594 2478 2717
Q 2269 2841 1825 2841
Q 1466 2841 1156 2769
Q 847 2697 581 2553
L 581 3406
Q 941 3494 1303 3539
Q 1666 3584 2028 3584
Q 2975 3584 3395 3211
Q 3816 2838 3816 1997
z
" transform="scale(0.015625)"/>
      <path id="DejaVuSans-Bold-74" d="M 1759 4494
L 1759 3500
L 2913 3500
L 2913 2700
L 1759 2700
L 1759 1216
Q 1759 972 1856 886
Q 1953 800 2241 800
L 2816 800
L 2816 0
L 1856 0
Q 1194 0 917 276
Q 641 553 641 1216
L 641 2700
L 84 2700
L 84 3500
L 641 3500
L 641 4494
L 1759 4494
z
" transform="scale(0.015625)"/>
      <path id="DejaVuSans-Bold-69" d="M 538 3500
L 1656 3500
L 1656 0
L 538 0
L 538 3500
z
M 538 4863
L 1656 4863
L 1656 3950
L 538 3950
L 538 4863
z
" transform="scale(0.015625)"/>
      <path id="DejaVuSans-Bold-6f" d="M 2203 2784
Q 1831 2784 1636 2517
Q 1441 2250 1441 1747
Q 1441 1244 1636 976
Q 1831 709 2203 709
Q 2569 709 2762 976
Q 2956 1244 2956 1747
Q 2956 2250 2762 2517
Q 2569 2784 2203 2784
z
M 2203 3584
Q 3106 3584 3614 3096
Q 4122 2609 4122 1747
Q 4122 884 3614 396
Q 3106 -91 2203 -91
Q 1297 -91 786 396
Q 275 884 275 1747
Q 275 2609 786 3096
Q 1297 3584 2203 3584
z
" transform="scale(0.015625)"/>
      <path id="DejaVuSans-Bold-6e" d="M 4056 2131
L 4056 0
L 2931 0
L 2931 347
L 2931 1631
Q 2931 2084 2911 2256
Q 2891 2428 2841 2509
Q 2775 2619 2662 2680
Q 2550 2741 2406 2741
Q 2056 2741 1856 2470
Q 1656 2200 1656 1722
L 1656 0
L 538 0
L 538 3500
L 1656 3500
L 1656 2988
Q 1909 3294 2193 3439
Q 2478 3584 2822 3584
Q 3428 3584 3742 3212
Q 4056 2841 4056 2131
z
" transform="scale(0.015625)"/>
     </defs>
     <use xlink:href="#DejaVuSans-Bold-50"/>
     <use xlink:href="#DejaVuSans-Bold-72" transform="translate(73.291016 0)"/>
     <use xlink:href="#DejaVuSans-Bold-65" transform="translate(122.607422 0)"/>
     <use xlink:href="#DejaVuSans-Bold-70" transform="translate(190.429688 0)"/>
     <use xlink:href="#DejaVuSans-Bold-61" transform="translate(262.011719 0)"/>
     <use xlink:href="#DejaVuSans-Bold-72" transform="translate(329.492188 0)"/>
     <use xlink:href="#DejaVuSans-Bold-61" transform="translate(378.808594 0)"/>
     <use xlink:href="#DejaVuSans-Bold-74" transform="translate(446.289062 0)"/>
     <use xlink:href="#DejaVuSans-Bold-69" transform="translate(494.091797 0)"/>
     <use xlink:href="#DejaVuSans-Bold-6f" transform="translate(528.369141 0)"/>
     <use xlink:href="#DejaVuSans-Bold-6e" transform="translate(597.070312 0)"/>
    </g>
   </g>
   <g id="PathCollection_1">
    <defs>
     <path id="meeb9e6190e" d="M 0 3.354102
C 0.889518 3.354102 1.742724 3.000693 2.371708 2.371708
C 3.000693 1.742724 3.354102 0.889518 3.354102 0
C 3.354102 -0.889518 3.000693 -1.742724 2.371708 -2.371708
C 1.742724 -3.000693 0.889518 -3.354102 0 -3.354102
C -0.889518 -3.354102 -1.742724 -3.000693 -2.371708 -2.371708
C -3.000693 -1.742724 -3.354102 -0.889518 -3.354102 0
C -3.354102 0.889518 -3.000693 1.742724 -2.371708 2.371708
C -1.742724 3.000693 -0.889518 3.354102 0 3.354102
z
" style="stroke: #e69f00"/>
    </defs>
    <g clip-path="url(#pfd8d1b58bd)">
     <use xlink:href="#meeb9e6190e" x="144.968639" y="174.736229" style="fill: #e69f00; stroke: #e69f00"/>
    </g>
   </g>
   <g id="PathCollection_2">
    <defs>
     <path id="mb2c3fa7b6a" d="M 0 4.031129
C 1.069068 4.031129 2.094493 3.606384 2.850439 2.850439
C 3.606384 2.094493 4.031129 1.069068 4.031129 0
C 4.031129 -1.069068 3.606384 -2.094493 2.850439 -2.850439
C 2.094493 -3.606384 1.069068 -4.031129 0 -4.031129
C -1.069068 -4.031129 -2.094493 -3.606384 -2.850439 -2.850439
C -3.606384 -2.094493 -4.031129 -1.069068 -4.031129 0
C -4.031129 1.069068 -3.606384 2.094493 -2.850439 2.850439
C -2.094493 3.606384 -1.069068 4.031129 0 4.031129
z
" style="stroke: #d55e00"/>
    </defs>
    <g clip-path="url(#pfd8d1b58bd)">
     <use xlink:href="#mb2c3fa7b6a" x="210.730604" y="146.154027" style="fill: #d55e00; stroke: #d55e00"/>
    </g>
   </g>
  </g>
  <g id="axes_2">
   <g id="patch_3">
    <path d="M 373.412342 138.541376
Q 361.878238 126.928614 352.077466 117.061006
" clip-path="url(#p72be214d9f)" style="fill: none; stroke: #cc79a7; stroke-width: 2.2; stroke-linecap: round"/>
    <path d="M 354.03717 123.007397
L 352.077466 117.061006
L 358.010401 119.061078
z
" clip-path="url(#p72be214d9f)" style="fill: #cc79a7; stroke: #cc79a7; stroke-width: 2.2; stroke-linecap: round"/>
   </g>
   <g id="line2d_5">
    <path d="M 309.195 182.9484
L 309.195 122.1552
" clip-path="url(#p72be214d9f)" style="fill: none; stroke: #17223b; stroke-opacity: 0.65; stroke-width: 6; stroke-linecap: square"/>
   </g>
   <g id="line2d_6">
    <path d="M 309.195 122.1552
L 344.635787 134.136372
L 373.412342 138.541376
" clip-path="url(#p72be214d9f)" style="fill: none; stroke: #009e73; stroke-width: 4.5; stroke-linecap: square"/>
   </g>
   <g id="line2d_7">
    <path d="M 309.195 122.1552
L 336.741424 141.244362
L 373.412342 138.541376
" clip-path="url(#p72be214d9f)" style="fill: none; stroke: #0072b2; stroke-width: 4.5; stroke-linecap: square"/>
   </g>
   <g id="line2d_8">
    <path d="M 373.412342 138.541376
L 424.287296 88.011015
" clip-path="url(#p72be214d9f)" style="fill: none; stroke: #17223b; stroke-width: 3; stroke-linecap: square"/>
   </g>
   <g id="text_3">
    <!-- $\mathbf{F}_t$ -->
    <g style="fill: #cc79a7" transform="translate(357.378238 120.693414) scale(0.09 -0.09)">
     <use xlink:href="#DejaVuSans-Bold-46" transform="translate(0 0.09375)"/>
     <use xlink:href="#DejaVuSans-Oblique-74" transform="translate(69.267578 -16.3125) scale(0.7)"/>
    </g>
   </g>
   <g id="text_4">
    <!-- Retention -->
    <g style="fill: #17223b" transform="translate(284.282578 204.7716) scale(0.09 -0.09)">
     <defs>
      <path id="DejaVuSans-Bold-52" d="M 2297 2597
Q 2675 2597 2839 2737
Q 3003 2878 3003 3200
Q 3003 3519 2839 3656
Q 2675 3794 2297 3794
L 1791 3794
L 1791 2597
L 2297 2597
z
M 1791 1766
L 1791 0
L 588 0
L 588 4666
L 2425 4666
Q 3347 4666 3776 4356
Q 4206 4047 4206 3378
Q 4206 2916 3982 2619
Q 3759 2322 3309 2181
Q 3556 2125 3751 1926
Q 3947 1728 4147 1325
L 4800 0
L 3519 0
L 2950 1159
Q 2778 1509 2601 1637
Q 2425 1766 2131 1766
L 1791 1766
z
" transform="scale(0.015625)"/>
     </defs>
     <use xlink:href="#DejaVuSans-Bold-52"/>
     <use xlink:href="#DejaVuSans-Bold-65" transform="translate(77.001953 0)"/>
     <use xlink:href="#DejaVuSans-Bold-74" transform="translate(144.824219 0)"/>
     <use xlink:href="#DejaVuSans-Bold-65" transform="translate(192.626953 0)"/>
     <use xlink:href="#DejaVuSans-Bold-6e" transform="translate(260.449219 0)"/>
     <use xlink:href="#DejaVuSans-Bold-74" transform="translate(331.640625 0)"/>
     <use xlink:href="#DejaVuSans-Bold-69" transform="translate(379.443359 0)"/>
     <use xlink:href="#DejaVuSans-Bold-6f" transform="translate(413.720703 0)"/>
     <use xlink:href="#DejaVuSans-Bold-6e" transform="translate(482.421875 0)"/>
    </g>
   </g>
   <g id="PathCollection_3">
    <g clip-path="url(#p72be214d9f)">
     <use xlink:href="#meeb9e6190e" x="373.412342" y="138.541376" style="fill: #e69f00; stroke: #e69f00"/>
    </g>
   </g>
   <g id="PathCollection_4">
    <g clip-path="url(#p72be214d9f)">
     <use xlink:href="#mb2c3fa7b6a" x="424.287296" y="88.011015" style="fill: #d55e00; stroke: #d55e00"/>
    </g>
   </g>
  </g>
  <g id="axes_3">
   <g id="patch_4">
    <path d="M 573.779137 94.036219
Q 558.734508 87.59022 545.950768 82.112919
" clip-path="url(#pf5e75b2978)" style="fill: none; stroke: #cc79a7; stroke-width: 2.2; stroke-linecap: round"/>
    <path d="M 549.995462 86.892087
L 545.950768 82.112919
L 552.200919 81.744664
z
" clip-path="url(#pf5e75b2978)" style="fill: #cc79a7; stroke: #cc79a7; stroke-width: 2.2; stroke-linecap: round"/>
   </g>
   <g id="line2d_9">
    <path d="M 513.765 182.9484
L 513.765 122.1552
" clip-path="url(#pf5e75b2978)" style="fill: none; stroke: #17223b; stroke-opacity: 0.65; stroke-width: 6; stroke-linecap: square"/>
   </g>
   <g id="line2d_10">
    <path d="M 513.765 122.1552
L 548.751595 108.906199
L 573.779137 94.036219
" clip-path="url(#pf5e75b2978)" style="fill: none; stroke: #009e73; stroke-width: 4.5; stroke-linecap: square"/>
   </g>
   <g id="line2d_11">
    <path d="M 513.765 122.1552
L 547.166588 119.410114
L 573.779137 94.036219
" clip-path="url(#pf5e75b2978)" style="fill: none; stroke: #0072b2; stroke-width: 4.5; stroke-linecap: square"/>
   </g>
   <g id="line2d_12">
    <path d="M 573.779137 94.036219
L 602.01875 28.126412
" clip-path="url(#pf5e75b2978)" style="fill: none; stroke: #17223b; stroke-width: 3; stroke-linecap: square"/>
   </g>
   <g id="text_5">
    <!-- $\mathbf{F}_t$ -->
    <g style="fill: #cc79a7" transform="translate(554.234508 81.35502) scale(0.09 -0.09)">
     <use xlink:href="#DejaVuSans-Bold-46" transform="translate(0 0.09375)"/>
     <use xlink:href="#DejaVuSans-Oblique-74" transform="translate(69.267578 -16.3125) scale(0.7)"/>
    </g>
   </g>
   <g id="text_6">
    <!-- Rapid Distal Acceleration -->
    <g style="fill: #17223b" transform="translate(449.748984 204.7716) scale(0.09 -0.09)">
     <defs>
      <path id="DejaVuSans-Bold-64" d="M 2919 2988
L 2919 4863
L 4044 4863
L 4044 0
L 2919 0
L 2919 506
Q 2688 197 2409 53
Q 2131 -91 1766 -91
Q 1119 -91 703 423
Q 288 938 288 1747
Q 288 2556 703 3070
Q 1119 3584 1766 3584
Q 2128 3584 2408 3439
Q 2688 3294 2919 2988
z
M 2181 722
Q 2541 722 2730 984
Q 2919 1247 2919 1747
Q 2919 2247 2730 2509
Q 2541 2772 2181 2772
Q 1825 2772 1636 2509
Q 1447 2247 1447 1747
Q 1447 1247 1636 984
Q 1825 722 2181 722
z
" transform="scale(0.015625)"/>
      <path id="DejaVuSans-Bold-20" transform="scale(0.015625)"/>
      <path id="DejaVuSans-Bold-44" d="M 1791 3756
L 1791 909
L 2222 909
Q 2959 909 3348 1275
Q 3738 1641 3738 2338
Q 3738 3031 3350 3393
Q 2963 3756 2222 3756
L 1791 3756
z
M 588 4666
L 1856 4666
Q 2919 4666 3439 4514
Q 3959 4363 4331 4000
Q 4659 3684 4818 3271
Q 4978 2859 4978 2338
Q 4978 1809 4818 1395
Q 4659 981 4331 666
Q 3956 303 3431 151
Q 2906 0 1856 0
L 588 0
L 588 4666
z
" transform="scale(0.015625)"/>
      <path id="DejaVuSans-Bold-73" d="M 3272 3391
L 3272 2541
Q 2913 2691 2578 2766
Q 2244 2841 1947 2841
Q 1628 2841 1473 2761
Q 1319 2681 1319 2516
Q 1319 2381 1436 2309
Q 1553 2238 1856 2203
L 2053 2175
Q 2913 2066 3209 1816
Q 3506 1566 3506 1031
Q 3506 472 3093 190
Q 2681 -91 1863 -91
Q 1516 -91 1145 -36
Q 775 19 384 128
L 384 978
Q 719 816 1070 734
Q 1422 653 1784 653
Q 2113 653 2278 743
Q 2444 834 2444 1013
Q 2444 1163 2330 1236
Q 2216 1309 1875 1350
L 1678 1375
Q 931 1469 631 1722
Q 331 1975 331 2491
Q 331 3047 712 3315
Q 1094 3584 1881 3584
Q 2191 3584 2531 3537
Q 2872 3491 3272 3391
z
" transform="scale(0.015625)"/>
      <path id="DejaVuSans-Bold-6c" d="M 538 4863
L 1656 4863
L 1656 0
L 538 0
L 538 4863
z
" transform="scale(0.015625)"/>
      <path id="DejaVuSans-Bold-41" d="M 3419 850
L 1538 850
L 1241 0
L 31 0
L 1759 4666
L 3194 4666
L 4922 0
L 3713 0
L 3419 850
z
M 1838 1716
L 3116 1716
L 2478 3572
L 1838 1716
z
" transform="scale(0.015625)"/>
      <path id="DejaVuSans-Bold-63" d="M 3366 3391
L 3366 2478
Q 3138 2634 2908 2709
Q 2678 2784 2431 2784
Q 1963 2784 1702 2511
Q 1441 2238 1441 1747
Q 1441 1256 1702 982
Q 1963 709 2431 709
Q 2694 709 2930 787
Q 3166 866 3366 1019
L 3366 103
Q 3103 6 2833 -42
Q 2563 -91 2291 -91
Q 1344 -91 809 395
Q 275 881 275 1747
Q 275 2613 809 3098
Q 1344 3584 2291 3584
Q 2566 3584 2833 3536
Q 3100 3488 3366 3391
z
" transform="scale(0.015625)"/>
     </defs>
     <use xlink:href="#DejaVuSans-Bold-52"/>
     <use xlink:href="#DejaVuSans-Bold-61" transform="translate(77.001953 0)"/>
     <use xlink:href="#DejaVuSans-Bold-70" transform="translate(144.482422 0)"/>
     <use xlink:href="#DejaVuSans-Bold-69" transform="translate(216.064453 0)"/>
     <use xlink:href="#DejaVuSans-Bold-64" transform="translate(250.341797 0)"/>
     <use xlink:href="#DejaVuSans-Bold-20" transform="translate(321.923828 0)"/>
     <use xlink:href="#DejaVuSans-Bold-44" transform="translate(356.738281 0)"/>
     <use xlink:href="#DejaVuSans-Bold-69" transform="translate(439.746094 0)"/>
     <use xlink:href="#DejaVuSans-Bold-73" transform="translate(474.023438 0)"/>
     <use xlink:href="#DejaVuSans-Bold-74" transform="translate(533.544922 0)"/>
     <use xlink:href="#DejaVuSans-Bold-61" transform="translate(581.347656 0)"/>
     <use xlink:href="#DejaVuSans-Bold-6c" transform="translate(648.828125 0)"/>
     <use xlink:href="#DejaVuSans-Bold-20" transform="translate(683.105469 0)"/>
     <use xlink:href="#DejaVuSans-Bold-41" transform="translate(717.919922 0)"/>
     <use xlink:href="#DejaVuSans-Bold-63" transform="translate(795.3125 0)"/>
     <use xlink:href="#DejaVuSans-Bold-63" transform="translate(854.589844 0)"/>
     <use xlink:href="#DejaVuSans-Bold-65" transform="translate(913.867188 0)"/>
     <use xlink:href="#DejaVuSans-Bold-6c" transform="translate(981.689453 0)"/>
     <use xlink:href="#DejaVuSans-Bold-65" transform="translate(1015.966797 0)"/>
     <use xlink:href="#DejaVuSans-Bold-72" transform="translate(1083.789062 0)"/>
     <use xlink:href="#DejaVuSans-Bold-61" transform="translate(1133.105469 0)"/>
     <use xlink:href="#DejaVuSans-Bold-74" transform="translate(1200.585938 0)"/>
     <use xlink:href="#DejaVuSans-Bold-69" transform="translate(1248.388672 0)"/>
     <use xlink:href="#DejaVuSans-Bold-6f" transform="translate(1282.666016 0)"/>
     <use xlink:href="#DejaVuSans-Bold-6e" transform="translate(1351.367188 0)"/>
    </g>
   </g>
   <g id="PathCollection_5">
    <g clip-path="url(#pf5e75b2978)">
     <use xlink:href="#meeb9e6190e" x="573.779137" y="94.036219" style="fill: #e69f00; stroke: #e69f00"/>
    </g>
   </g>
   <g id="PathCollection_6">
    <g clip-path="url(#pf5e75b2978)">
     <use xlink:href="#mb2c3fa7b6a" x="602.01875" y="28.126412" style="fill: #d55e00; stroke: #d55e00"/>
    </g>
   </g>
  </g>
  <g id="axes_4">
   <g id="patch_5">
    <path d="M 754.301554 66.488507
Q 738.004575 64.971851 724.156688 63.683117
" clip-path="url(#p059a886db7)" style="fill: none; stroke: #cc79a7; stroke-width: 2.2; stroke-linecap: round"/>
    <path d="M 729.473137 66.989983
L 724.156688 63.683117
L 729.992051 61.414077
z
" clip-path="url(#p059a886db7)" style="fill: #cc79a7; stroke: #cc79a7; stroke-width: 2.2; stroke-linecap: round"/>
   </g>
   <g id="line2d_13">
    <path d="M 718.335 182.9484
L 718.335 122.1552
" clip-path="url(#p059a886db7)" style="fill: none; stroke: #17223b; stroke-opacity: 0.65; stroke-width: 6; stroke-linecap: square"/>
   </g>
   <g id="line2d_14">
    <path d="M 718.335 122.1552
L 740.969683 92.368139
L 754.301554 66.488507
" clip-path="url(#p059a886db7)" style="fill: none; stroke: #009e73; stroke-width: 4.5; stroke-linecap: square"/>
   </g>
   <g id="line2d_15">
    <path d="M 718.335 122.1552
L 745.19657 102.113801
L 754.301554 66.488507
" clip-path="url(#p059a886db7)" style="fill: none; stroke: #0072b2; stroke-width: 4.5; stroke-linecap: square"/>
   </g>
   <g id="line2d_16">
    <path d="M 754.301554 66.488507
L 760.582278 -1
" clip-path="url(#p059a886db7)" style="fill: none; stroke: #17223b; stroke-width: 3; stroke-linecap: square"/>
   </g>
   <g id="text_7">
    <!-- $\mathbf{F}_t$ -->
    <g style="fill: #cc79a7" transform="translate(733.504575 58.736651) scale(0.09 -0.09)">
     <use xlink:href="#DejaVuSans-Bold-46" transform="translate(0 0.09375)"/>
     <use xlink:href="#DejaVuSans-Oblique-74" transform="translate(69.267578 -16.3125) scale(0.7)"/>
    </g>
   </g>
   <g id="text_8">
    <!-- Delivery -->
    <g style="fill: #17223b" transform="translate(697.323516 204.7716) scale(0.09 -0.09)">
     <defs>
      <path id="DejaVuSans-Bold-76" d="M 97 3500
L 1216 3500
L 2088 1081
L 2956 3500
L 4078 3500
L 2700 0
L 1472 0
L 97 3500
z
" transform="scale(0.015625)"/>
      <path id="DejaVuSans-Bold-79" d="M 78 3500
L 1197 3500
L 2138 1125
L 2938 3500
L 4056 3500
L 2584 -331
Q 2363 -916 2067 -1148
Q 1772 -1381 1288 -1381
L 641 -1381
L 641 -647
L 991 -647
Q 1275 -647 1404 -556
Q 1534 -466 1606 -231
L 1638 -134
L 78 3500
z
" transform="scale(0.015625)"/>
     </defs>
     <use xlink:href="#DejaVuSans-Bold-44"/>
     <use xlink:href="#DejaVuSans-Bold-65" transform="translate(83.007812 0)"/>
     <use xlink:href="#DejaVuSans-Bold-6c" transform="translate(150.830078 0)"/>
     <use xlink:href="#DejaVuSans-Bold-69" transform="translate(185.107422 0)"/>
     <use xlink:href="#DejaVuSans-Bold-76" transform="translate(219.384766 0)"/>
     <use xlink:href="#DejaVuSans-Bold-65" transform="translate(284.570312 0)"/>
     <use xlink:href="#DejaVuSans-Bold-72" transform="translate(352.392578 0)"/>
     <use xlink:href="#DejaVuSans-Bold-79" transform="translate(401.708984 0)"/>
    </g>
   </g>
   <g id="PathCollection_7">
    <g clip-path="url(#p059a886db7)">
     <use xlink:href="#meeb9e6190e" x="754.301554" y="66.488507" style="fill: #e69f00; stroke: #e69f00"/>
    </g>
   </g>
   <g id="PathCollection_8">
    <g clip-path="url(#p059a886db7)"/>
   </g>
  </g>
  <g id="text_9">
   <!-- Phase-Resolved Geometry Makes the Transfer Mechanism Visible -->
   <g style="fill: #17223b" transform="translate(212.931281 15.406313) scale(0.108 -0.108)">
    <defs>
     <path id="DejaVuSans-Bold-68" d="M 4056 2131
L 4056 0
L 2931 0
L 2931 347
L 2931 1625
Q 2931 2084 2911 2256
Q 2891 2428 2841 2509
Q 2775 2619 2662 2680
Q 2550 2741 2406 2741
Q 2056 2741 1856 2470
Q 1656 2200 1656 1722
L 1656 0
L 538 0
L 538 4863
L 1656 4863
L 1656 2988
Q 1909 3294 2193 3439
Q 2478 3584 2822 3584
Q 3428 3584 3742 3212
Q 4056 2841 4056 2131
z
" transform="scale(0.015625)"/>
     <path id="DejaVuSans-Bold-2d" d="M 347 2297
L 2309 2297
L 2309 1388
L 347 1388
L 347 2297
z
" transform="scale(0.015625)"/>
     <path id="DejaVuSans-Bold-47" d="M 4781 347
Q 4331 128 3847 18
Q 3363 -91 2847 -91
Q 1681 -91 1000 561
Q 319 1213 319 2328
Q 319 3456 1012 4103
Q 1706 4750 2913 4750
Q 3378 4750 3804 4662
Q 4231 4575 4609 4403
L 4609 3438
Q 4219 3659 3833 3768
Q 3447 3878 3059 3878
Q 2341 3878 1952 3476
Q 1563 3075 1563 2328
Q 1563 1588 1938 1184
Q 2313 781 3003 781
Q 3191 781 3352 804
Q 3513 828 3641 878
L 3641 1784
L 2906 1784
L 2906 2591
L 4781 2591
L 4781 347
z
" transform="scale(0.015625)"/>
     <path id="DejaVuSans-Bold-6d" d="M 3781 2919
Q 3994 3244 4286 3414
Q 4578 3584 4928 3584
Q 5531 3584 5847 3212
Q 6163 2841 6163 2131
L 6163 0
L 5038 0
L 5038 1825
Q 5041 1866 5042 1909
Q 5044 1953 5044 2034
Q 5044 2406 4934 2573
Q 4825 2741 4581 2741
Q 4263 2741 4089 2478
Q 3916 2216 3909 1719
L 3909 0
L 2784 0
L 2784 1825
Q 2784 2406 2684 2573
Q 2584 2741 2328 2741
Q 2006 2741 1831 2477
Q 1656 2213 1656 1722
L 1656 0
L 531 0
L 531 3500
L 1656 3500
L 1656 2988
Q 1863 3284 2130 3434
Q 2397 3584 2719 3584
Q 3081 3584 3359 3409
Q 3638 3234 3781 2919
z
" transform="scale(0.015625)"/>
     <path id="DejaVuSans-Bold-4d" d="M 588 4666
L 2119 4666
L 3181 2169
L 4250 4666
L 5778 4666
L 5778 0
L 4641 0
L 4641 3413
L 3566 897
L 2803 897
L 1728 3413
L 1728 0
L 588 0
L 588 4666
z
" transform="scale(0.015625)"/>
     <path id="DejaVuSans-Bold-6b" d="M 538 4863
L 1656 4863
L 1656 2216
L 2944 3500
L 4244 3500
L 2534 1894
L 4378 0
L 3022 0
L 1656 1459
L 1656 0
L 538 0
L 538 4863
z
" transform="scale(0.015625)"/>
     <path id="DejaVuSans-Bold-54" d="M 31 4666
L 4331 4666
L 4331 3756
L 2784 3756
L 2784 0
L 1581 0
L 1581 3756
L 31 3756
L 31 4666
z
" transform="scale(0.015625)"/>
     <path id="DejaVuSans-Bold-66" d="M 2841 4863
L 2841 4128
L 2222 4128
Q 1984 4128 1890 4042
Q 1797 3956 1797 3744
L 1797 3500
L 2753 3500
L 2753 2700
L 1797 2700
L 1797 0
L 678 0
L 678 2700
L 122 2700
L 122 3500
L 678 3500
L 678 3744
Q 678 4316 997 4589
Q 1316 4863 1984 4863
L 2841 4863
z
" transform="scale(0.015625)"/>
     <path id="DejaVuSans-Bold-56" d="M 31 4666
L 1241 4666
L 2478 1222
L 3713 4666
L 4922 4666
L 3194 0
L 1759 0
L 31 4666
z
" transform="scale(0.015625)"/>
     <path id="DejaVuSans-Bold-62" d="M 2400 722
Q 2759 722 2948 984
Q 3138 1247 3138 1747
Q 3138 2247 2948 2509
Q 2759 2772 2400 2772
Q 2041 2772 1848 2508
Q 1656 2244 1656 1747
Q 1656 1250 1848 986
Q 2041 722 2400 722
z
M 1656 2988
Q 1888 3294 2169 3439
Q 2450 3584 2816 3584
Q 3463 3584 3878 3070
Q 4294 2556 4294 1747
Q 4294 938 3878 423
Q 3463 -91 2816 -91
Q 2450 -91 2169 54
Q 1888 200 1656 506
L 1656 0
L 538 0
L 538 4863
L 1656 4863
L 1656 2988
z
" transform="scale(0.015625)"/>
    </defs>
    <use xlink:href="#DejaVuSans-Bold-50"/>
    <use xlink:href="#DejaVuSans-Bold-68" transform="translate(73.291016 0)"/>
    <use xlink:href="#DejaVuSans-Bold-61" transform="translate(144.482422 0)"/>
    <use xlink:href="#DejaVuSans-Bold-73" transform="translate(211.962891 0)"/>
    <use xlink:href="#DejaVuSans-Bold-65" transform="translate(271.484375 0)"/>
    <use xlink:href="#DejaVuSans-Bold-2d" transform="translate(339.306641 0)"/>
    <use xlink:href="#DejaVuSans-Bold-52" transform="translate(380.810547 0)"/>
    <use xlink:href="#DejaVuSans-Bold-65" transform="translate(457.8125 0)"/>
    <use xlink:href="#DejaVuSans-Bold-73" transform="translate(525.634766 0)"/>
    <use xlink:href="#DejaVuSans-Bold-6f" transform="translate(585.15625 0)"/>
    <use xlink:href="#DejaVuSans-Bold-6c" transform="translate(653.857422 0)"/>
    <use xlink:href="#DejaVuSans-Bold-76" transform="translate(688.134766 0)"/>
    <use xlink:href="#DejaVuSans-Bold-65" transform="translate(753.320312 0)"/>
    <use xlink:href="#DejaVuSans-Bold-64" transform="translate(821.142578 0)"/>
    <use xlink:href="#DejaVuSans-Bold-20" transform="translate(892.724609 0)"/>
    <use xlink:href="#DejaVuSans-Bold-47" transform="translate(927.539062 0)"/>
    <use xlink:href="#DejaVuSans-Bold-65" transform="translate(1009.619141 0)"/>
    <use xlink:href="#DejaVuSans-Bold-6f" transform="translate(1077.441406 0)"/>
    <use xlink:href="#DejaVuSans-Bold-6d" transform="translate(1146.142578 0)"/>
    <use xlink:href="#DejaVuSans-Bold-65" transform="translate(1250.341797 0)"/>
    <use xlink:href="#DejaVuSans-Bold-74" transform="translate(1318.164062 0)"/>
    <use xlink:href="#DejaVuSans-Bold-72" transform="translate(1365.966797 0)"/>
    <use xlink:href="#DejaVuSans-Bold-79" transform="translate(1415.283203 0)"/>
    <use xlink:href="#DejaVuSans-Bold-20" transform="translate(1480.46875 0)"/>
    <use xlink:href="#DejaVuSans-Bold-4d" transform="translate(1515.283203 0)"/>
    <use xlink:href="#DejaVuSans-Bold-61" transform="translate(1614.794922 0)"/>
    <use xlink:href="#DejaVuSans-Bold-6b" transform="translate(1682.275391 0)"/>
    <use xlink:href="#DejaVuSans-Bold-65" transform="translate(1746.154297 0)"/>
    <use xlink:href="#DejaVuSans-Bold-73" transform="translate(1813.976562 0)"/>
    <use xlink:href="#DejaVuSans-Bold-20" transform="translate(1873.498047 0)"/>
    <use xlink:href="#DejaVuSans-Bold-74" transform="translate(1908.3125 0)"/>
    <use xlink:href="#DejaVuSans-Bold-68" transform="translate(1956.115234 0)"/>
    <use xlink:href="#DejaVuSans-Bold-65" transform="translate(2027.306641 0)"/>
    <use xlink:href="#DejaVuSans-Bold-20" transform="translate(2095.128906 0)"/>
    <use xlink:href="#DejaVuSans-Bold-54" transform="translate(2129.943359 0)"/>
    <use xlink:href="#DejaVuSans-Bold-72" transform="translate(2187.15625 0)"/>
    <use xlink:href="#DejaVuSans-Bold-61" transform="translate(2236.472656 0)"/>
    <use xlink:href="#DejaVuSans-Bold-6e" transform="translate(2303.953125 0)"/>
    <use xlink:href="#DejaVuSans-Bold-73" transform="translate(2375.144531 0)"/>
    <use xlink:href="#DejaVuSans-Bold-66" transform="translate(2434.666016 0)"/>
    <use xlink:href="#DejaVuSans-Bold-65" transform="translate(2478.171875 0)"/>
    <use xlink:href="#DejaVuSans-Bold-72" transform="translate(2545.994141 0)"/>
    <use xlink:href="#DejaVuSans-Bold-20" transform="translate(2595.310547 0)"/>
    <use xlink:href="#DejaVuSans-Bold-4d" transform="translate(2630.125 0)"/>
    <use xlink:href="#DejaVuSans-Bold-65" transform="translate(2729.636719 0)"/>
    <use xlink:href="#DejaVuSans-Bold-63" transform="translate(2797.458984 0)"/>
    <use xlink:href="#DejaVuSans-Bold-68" transform="translate(2856.736328 0)"/>
    <use xlink:href="#DejaVuSans-Bold-61" transform="translate(2927.927734 0)"/>
    <use xlink:href="#DejaVuSans-Bold-6e" transform="translate(2995.408203 0)"/>
    <use xlink:href="#DejaVuSans-Bold-69" transform="translate(3066.599609 0)"/>
    <use xlink:href="#DejaVuSans-Bold-73" transform="translate(3100.876953 0)"/>
    <use xlink:href="#DejaVuSans-Bold-6d" transform="translate(3160.398438 0)"/>
    <use xlink:href="#DejaVuSans-Bold-20" transform="translate(3264.597656 0)"/>
    <use xlink:href="#DejaVuSans-Bold-56" transform="translate(3299.412109 0)"/>
    <use xlink:href="#DejaVuSans-Bold-69" transform="translate(3375.054688 0)"/>
    <use xlink:href="#DejaVuSans-Bold-73" transform="translate(3409.332031 0)"/>
    <use xlink:href="#DejaVuSans-Bold-69" transform="translate(3468.853516 0)"/>
    <use xlink:href="#DejaVuSans-Bold-62" transform="translate(3503.130859 0)"/>
    <use xlink:href="#DejaVuSans-Bold-6c" transform="translate(3574.712891 0)"/>
    <use xlink:href="#DejaVuSans-Bold-65" transform="translate(3608.990234 0)"/>
   </g>
  </g>
 </g>
 <defs>
  <clipPath id="pfd8d1b58bd">
   <rect x="7.2" y="48.8916" width="194.85" height="165.2328"/>
  </clipPath>
  <clipPath id="p72be214d9f">
   <rect x="211.77" y="48.8916" width="194.85" height="165.2328"/>
  </clipPath>
  <clipPath id="pf5e75b2978">
   <rect x="416.34" y="48.8916" width="194.85" height="165.2328"/>
  </clipPath>
  <clipPath id="p059a886db7">
   <rect x="620.91" y="48.8916" width="194.85" height="165.2328"/>
  </clipPath>
 </defs>
</svg>
