<svg xmlns="http://www.w3.org/2000/svg" viewBox="0 0 64 64" fill="none">
  <rect width="64" height="64" rx="12" fill="#1a1a2e"/>
  <!-- Film strip sprocket holes -->
  <rect x="12" y="14" width="4" height="4" rx="1" fill="#5c6bc0" opacity="0.5"/>
  <rect x="12" y="24" width="4" height="4" rx="1" fill="#5c6bc0" opacity="0.5"/>
  <rect x="12" y="34" width="4" height="4" rx="1" fill="#5c6bc0" opacity="0.5"/>
  <rect x="12" y="44" width="4" height="4" rx="1" fill="#5c6bc0" opacity="0.5"/>
  <!-- Frame border -->
  <rect x="18" y="14" width="28" height="36" rx="2" stroke="#5c6bc0" stroke-width="1.5" fill="none"/>
  <line x1="18" y1="26" x2="46" y2="26" stroke="#5c6bc0" stroke-width="0.75" opacity="0.4"/>
  <line x1="18" y1="38" x2="46" y2="38" stroke="#5c6bc0" stroke-width="0.75" opacity="0.4"/>
  <!-- Pose skeleton figure (center frame) -->
  <circle cx="32" cy="30" r="2.5" fill="#7986cb"/>
  <line x1="32" y1="32.5" x2="32" y2="39" stroke="#7986cb" stroke-width="1.5" stroke-linecap="round"/>
  <line x1="32" y1="34" x2="27" y2="37" stroke="#7986cb" stroke-width="1.5" stroke-linecap="round"/>
  <line x1="32" y1="34" x2="37" y2="37" stroke="#7986cb" stroke-width="1.5" stroke-linecap="round"/>
  <line x1="32" y1="39" x2="28" y2="45" stroke="#7986cb" stroke-width="1.5" stroke-linecap="round"/>
  <line x1="32" y1="39" x2="36" y2="45" stroke="#7986cb" stroke-width="1.5" stroke-linecap="round"/>
  <!-- Joint markers -->
  <circle cx="27" cy="37" r="1.2" fill="#9fa8da"/>
  <circle cx="37" cy="37" r="1.2" fill="#9fa8da"/>
  <circle cx="28" cy="45" r="1.2" fill="#9fa8da"/>
  <circle cx="36" cy="45" r="1.2" fill="#9fa8da"/>
  <!-- Motion trail dots (top frame) -->
  <circle cx="26" cy="18" r="1" fill="#9fa8da" opacity="0.3"/>
  <circle cx="30" cy="19" r="1" fill="#9fa8da" opacity="0.5"/>
  <circle cx="34" cy="18" r="1" fill="#9fa8da" opacity="0.7"/>
  <circle cx="38" cy="20" r="1.2" fill="#9fa8da" opacity="0.9"/>
  <!-- Waveform hint (right side) -->
  <rect x="48" y="14" width="4" height="4" rx="1" fill="#5c6bc0" opacity="0.5"/>
  <rect x="48" y="24" width="4" height="4" rx="1" fill="#5c6bc0" opacity="0.5"/>
  <rect x="48" y="34" width="4" height="4" rx="1" fill="#5c6bc0" opacity="0.5"/>
  <rect x="48" y="44" width="4" height="4" rx="1" fill="#5c6bc0" opacity="0.5"/>
</svg>
